<?xml version="1.0" encoding="utf-8"?>
<!-- Generator: Adobe Illustrator 16.0.3, SVG Export Plug-In . SVG Version: 6.00 Build 0)  -->
<!DOCTYPE svg PUBLIC "-//W3C//DTD SVG 1.1//EN" "http://www.w3.org/Graphics/SVG/1.1/DTD/svg11.dtd">
<svg version="1.1" id="Vrstva_1" xmlns="http://www.w3.org/2000/svg" xmlns:xlink="http://www.w3.org/1999/xlink" x="0px" y="0px"
	 width="177.223px" height="39.002px" viewBox="0 -0.001 177.223 39.002" style="enable-background:new 0 -0.001 177.223 39.002;"
	 xml:space="preserve">
<g id="Vrstva_5">
	<g>
		<path style="fill:#FFFFFF;" d="M44.992,26.77h6.387v-2.478h-3.788V13.114h-2.6L44.992,26.77L44.992,26.77z"/>
		<path style="fill:#FFFFFF;" d="M53.265,26.77h2.581V13.116h-2.581V26.77z"/>
		<path style="fill:#FFFFFF;" d="M72.383,19.983c0-2.012-0.695-3.717-2.086-5.115c-1.39-1.398-3.055-2.1-4.993-2.1
			c-1.27,0-2.458,0.322-3.563,0.969c-1.106,0.643-1.976,1.512-2.605,2.604c-0.63,1.092-0.948,2.291-0.948,3.596
			c0,1.958,0.681,3.645,2.036,5.057c1.356,1.414,3.063,2.123,5.112,2.123c1.227,0,2.34-0.273,3.337-0.82l1.208,1.555h3.078
			l-2.377-3.072C71.783,23.432,72.383,21.833,72.383,19.983L72.383,19.983z M67.729,21.087h-3.102l2.443,3.146
			c-0.546,0.242-1.128,0.361-1.747,0.361c-1.079,0-2.044-0.344-2.893-1.027c-1.085-0.881-1.628-2.073-1.628-3.583
			c0-1.355,0.431-2.475,1.293-3.354c0.86-0.879,1.929-1.316,3.206-1.316c1.239,0,2.295,0.451,3.168,1.354
			c0.874,0.904,1.313,2.004,1.313,3.297c0,0.988-0.276,1.896-0.827,2.711L67.729,21.087z"/>
		<path style="fill:#FFFFFF;" d="M74.836,21.255c0,1.627,0.158,2.783,0.474,3.468c0.315,0.686,0.841,1.254,1.573,1.709
			c0.734,0.455,1.596,0.684,2.585,0.684c0.755,0,1.417-0.119,1.986-0.355c0.567-0.238,1.071-0.604,1.509-1.102
			c0.436-0.494,0.73-1.012,0.886-1.541c0.155-0.531,0.232-1.484,0.232-2.859v-8.141h-2.607v8.506c0,0.914-0.063,1.535-0.189,1.857
			c-0.13,0.324-0.356,0.594-0.688,0.805s-0.726,0.313-1.184,0.313c-0.435,0-0.805-0.094-1.109-0.283
			c-0.306-0.188-0.526-0.438-0.659-0.754c-0.133-0.315-0.199-0.854-0.199-1.613v-8.829h-2.607L74.836,21.255L74.836,21.255z"/>
		<path style="fill:#FFFFFF;" d="M87.009,26.77h2.582V13.116h-2.582V26.77z"/>
		<path style="fill:#FFFFFF;" d="M92.617,26.77h3.127c1.768,0,3.01-0.109,3.729-0.332c0.717-0.226,1.383-0.627,1.998-1.209
			c0.615-0.58,1.098-1.313,1.449-2.193c0.348-0.883,0.522-1.85,0.522-2.9c0-1.479-0.313-2.771-0.938-3.879
			c-0.625-1.111-1.42-1.91-2.385-2.4c-0.966-0.49-2.439-0.736-4.427-0.736h-3.077L92.617,26.77L92.617,26.77z M96.08,15.62
			c1.614,0,2.789,0.359,3.52,1.078c0.812,0.799,1.215,1.924,1.215,3.373c0,0.939-0.17,1.732-0.51,2.382
			c-0.34,0.644-0.779,1.103-1.313,1.373c-0.535,0.271-1.396,0.409-2.584,0.409H95.2V15.62H96.08L96.08,15.62z"/>
		<path style="fill:#FFFFFF;" d="M111.44,26.77h3.125c1.771,0,3.013-0.109,3.73-0.332c0.715-0.226,1.383-0.627,1.998-1.209
			c0.613-0.58,1.098-1.313,1.444-2.193c0.351-0.883,0.521-1.85,0.521-2.9c0-1.479-0.311-2.771-0.936-3.879
			c-0.625-1.111-1.421-1.91-2.386-2.4c-0.965-0.49-2.438-0.736-4.424-0.736h-3.082v13.651h0.006V26.77H111.44z M114.903,15.62
			c1.615,0,2.787,0.359,3.519,1.078c0.813,0.799,1.217,1.924,1.217,3.373c0,0.939-0.172,1.732-0.51,2.382
			c-0.342,0.644-0.779,1.103-1.313,1.373s-1.396,0.409-2.584,0.409h-1.207V15.62H114.903L114.903,15.62z"/>
		<path style="fill:#FFFFFF;" d="M124.848,26.77h7.455v-2.554h-4.873v-3.592h4.873v-2.496h-4.873v-2.471h4.873v-2.543h-7.455V26.77z
			"/>
		<path style="fill:#FFFFFF;" d="M139.985,13.243c-0.616-0.314-1.268-0.475-1.946-0.475c-1.063,0-1.951,0.34-2.675,1.02
			c-0.723,0.678-1.081,1.488-1.081,2.436c0,0.656,0.217,1.314,0.649,1.977c0.435,0.658,1.396,1.594,2.885,2.807
			c0.779,0.639,1.285,1.111,1.515,1.42c0.229,0.313,0.344,0.619,0.344,0.93c0,0.343-0.148,0.644-0.455,0.898
			c-0.303,0.262-0.678,0.391-1.125,0.391c-0.854,0-1.607-0.604-2.268-1.811l-2.188,1.32c0.516,1.02,1.135,1.77,1.855,2.242
			c0.721,0.479,1.567,0.719,2.543,0.719c1.243,0,2.254-0.367,3.028-1.098c0.771-0.729,1.158-1.654,1.158-2.773
			c0-0.576-0.106-1.107-0.328-1.592c-0.221-0.486-0.596-0.996-1.119-1.527c-0.211-0.217-0.813-0.74-1.809-1.568
			c-1.062-0.896-1.693-1.48-1.902-1.756c-0.155-0.203-0.231-0.42-0.231-0.648c0-0.23,0.106-0.436,0.326-0.617
			c0.217-0.186,0.493-0.273,0.836-0.273c0.698,0,1.391,0.471,2.063,1.41l1.928-1.697C141.266,14.134,140.602,13.56,139.985,13.243z"
			/>
		<path style="fill:#FFFFFF;" d="M144.615,26.77h2.581V13.116h-2.581V26.77z"/>
		<path style="fill:#FFFFFF;" d="M160.26,13.429c-1.033-0.438-2.143-0.658-3.332-0.658c-2.271,0-4.113,0.797-5.531,2.387
			c-1.192,1.338-1.793,2.908-1.793,4.717c0,1.316,0.324,2.547,0.974,3.686c0.645,1.142,1.522,2.019,2.637,2.633
			c1.108,0.613,2.373,0.925,3.791,0.925c1.324,0,2.479-0.281,3.461-0.847c0.986-0.563,1.787-1.381,2.404-2.449
			c0.621-1.071,0.93-2.202,0.93-3.397l-0.018-0.574h-6.869v2.441h3.953c-0.378,0.804-0.875,1.396-1.49,1.771
			c-0.617,0.381-1.375,0.567-2.273,0.567c-1.383,0-2.543-0.459-3.479-1.373c-0.943-0.916-1.414-2.032-1.414-3.352
			c0-1.275,0.455-2.357,1.362-3.25c0.902-0.893,2.027-1.338,3.373-1.338c1.546,0,2.896,0.611,4.054,1.84l1.832-1.813
			C161.987,14.438,161.133,13.8,160.26,13.429L160.26,13.429z"/>
		<path style="fill:#FFFFFF;" d="M166.289,26.77h2.6v-8.958l5.834,8.958h2.5V13.116h-2.598V22.1l-5.844-8.983h-2.492V26.77
			L166.289,26.77z"/>
	</g>
	<g id="VEKTOR">
		<rect x="20.444" y="34.404" style="fill:#FFFFFF;" width="14.142" height="4.597"/>
		<rect x="20.444" y="-0.001" style="fill:#FFFFFF;" width="14.142" height="4.596"/>
		<rect x="0" y="-0.001" style="fill:#FFFFFF;" width="15.671" height="4.596"/>
		<rect x="0" y="34.404" style="fill:#FFFFFF;" width="15.671" height="4.597"/>
		<rect x="9.276" y="8.015" style="fill:#FFFFFF;" width="6.396" height="4.598"/>
		<rect x="20.444" y="8.015" style="fill:#FFFFFF;" width="4.597" height="23.059"/>
		<rect x="29.99" y="3.603" style="fill:#FFFFFF;" width="4.595" height="31.434"/>
		<rect x="0" y="3.827" style="fill:#FFFFFF;" width="4.596" height="31.432"/>
	</g>
</g>
</svg>
